<?xml version="1.0" encoding="UTF-8" standalone="no"?>
<svg
   viewBox="374.6153 97 300.7694 247.8"
   width="3641.2761"
   height="3000"
   preserveAspectRatio="none"
   version="1.1"
   id="svg305"
   sodipodi:docname="logo_name.svg"
   inkscape:version="1.2.1 (9c6d41e, 2022-07-14)"
   xmlns:inkscape="http://www.inkscape.org/namespaces/inkscape"
   xmlns:sodipodi="http://sodipodi.sourceforge.net/DTD/sodipodi-0.dtd"
   xmlns="http://www.w3.org/2000/svg"
   xmlns:svg="http://www.w3.org/2000/svg">
  <sodipodi:namedview
     id="namedview307"
     pagecolor="#ffffff"
     bordercolor="#000000"
     borderopacity="0.25"
     inkscape:showpageshadow="2"
     inkscape:pageopacity="0.0"
     inkscape:pagecheckerboard="0"
     inkscape:deskcolor="#d1d1d1"
     showgrid="false"
     inkscape:zoom="0.1754"
     inkscape:cx="4164.7662"
     inkscape:cy="2351.7674"
     inkscape:window-width="1920"
     inkscape:window-height="1027"
     inkscape:window-x="0"
     inkscape:window-y="26"
     inkscape:window-maximized="0"
     inkscape:current-layer="svg305" />
  <defs
     id="defs271" />
  <style
     id="style273">.aLgOaV3zRcolors-0 {fill:#80DDD9;fill-opacity:1;}.aLgOaV3zRcolors-1 {fill:#EFEEEE;fill-opacity:1;}.aLgOaV3zRcolors-2 {fill:#E9CE34;fill-opacity:1;}.aLgOaV3zRcolors-3 {fill:#190C47;fill-opacity:1;}.aLgOaV3zRcolors-4 {fill:#472DA0;fill-opacity:1;}.aLgOaV3zRcolors-5 {fill:#6F52D2;fill-opacity:1;}.aLgOaV3zRcolors-6 {fill:#A185FF;fill-opacity:1;}.aLgOaV3zRcolors-7 {fill:#070314;fill-opacity:1;}.companyName {fill:#EFEEEE;fill-opacity:1;}.icon3-str {stroke:#E9CE34;stroke-opacity:1;}.text {fill:#EFEEEE;fill-opacity:1;}</style>
  <g
     opacity="1"
     id="g303">
    <svg
       width="300.76941"
       height="247.2991"
       x="374.6153"
       y="97"
       version="1.1"
       preserveAspectRatio="none"
       viewBox="10 26 180 148"
       id="svg301">
      <g
         class="aLgOaV3zRcolors-0"
         id="g299">
        <g
           id="g297">
          <path
             d="M 87.3,147.2 H 190 L 146.6,82.6 c 9.2,-2 16.2,-10.3 16.2,-20.2 0,-11.4 -9.2,-20.7 -20.6,-20.7 -7.1,0 -13.3,3.6 -17,9 L 108.6,26 57.3,102.5 48.7,89.6 10,147.2 Z m -54.9,-2.7 24.9,-37.1 24.9,37.1 z m 109.9,-100 c 9.8,0 17.8,8 17.8,17.9 0,9 -6.6,16.4 -15.1,17.7 L 127,53.3 c 3,-5.3 8.7,-8.8 15.3,-8.8 z m -16.7,11.6 16.2,24.2 c -9.6,-0.2 -17.4,-8.2 -17.4,-17.9 0,-2.2 0.4,-4.3 1.2,-6.3 z m -17,-25.2 15.1,22.5 c -1.3,2.7 -2.1,5.8 -2.1,9 0,11.4 9.2,20.7 20.6,20.7 0.5,0 0.9,0 1.4,-0.1 l 41.3,61.5 H 85.5 L 58.9,104.9 Z m -93.5,113.6 33.6,-50 7,10.4 -26.6,39.6 z"
             id="path289" />
          <path
             d="m 187.5,154.5 v 2.7 H 12.6 v -2.7 z"
             id="path291" />
          <path
             d="m 158.1,163.5 v 2.7 H 41.8 v -2.7 z"
             id="path293" />
          <path
             d="M 125.8,171.3 V 174 H 74.2 v -2.7 z"
             id="path295" />
        </g>
      </g>
    </svg>
  </g>
</svg>
